<?xml version="1.0" encoding="utf-8"?>
<!-- Generator: Adobe Illustrator 24.1.1, SVG Export Plug-In . SVG Version: 6.00 Build 0)  -->
<svg version="1.1" id="Capa_1" xmlns="http://www.w3.org/2000/svg" xmlns:xlink="http://www.w3.org/1999/xlink" x="0px" y="0px"
	 viewBox="6 -512 512 512" style="enable-background:new 6 -512 512 512;" xml:space="preserve">
<style type="text/css">
	.st0{fill:url(#SVGID_1_);}
	.st1{fill:url(#SVGID_2_);}
	.st2{fill:url(#SVGID_3_);}
	.st3{fill:url(#SVGID_4_);}
	.st4{fill:url(#SVGID_5_);}
	.st5{fill:url(#SVGID_6_);}
	.st6{fill:url(#SVGID_7_);}
	.st7{fill:url(#SVGID_8_);}
	.st8{fill:url(#SVGID_9_);}
	.st9{fill:url(#SVGID_10_);}
	.st10{fill:url(#SVGID_11_);}
	.st11{fill:url(#SVGID_12_);}
	.st12{fill:none;stroke:url(#SVGID_13_);stroke-width:15;stroke-miterlimit:10;}
	.st13{fill:none;stroke:url(#SVGID_14_);stroke-width:11.246;stroke-miterlimit:10;}
	.st14{fill:none;stroke:url(#SVGID_15_);stroke-width:11.246;stroke-miterlimit:10;}
	.st15{fill:none;stroke:url(#SVGID_16_);stroke-width:11.246;stroke-miterlimit:10;}
</style>
<g>
	<linearGradient id="SVGID_1_" gradientUnits="userSpaceOnUse" x1="151.8443" y1="-604.0586" x2="532.6012" y2="-260.9347">
		<stop  offset="0" style="stop-color:#ADEBA2"/>
		<stop  offset="1" style="stop-color:#3F7336"/>
	</linearGradient>
	<polygon class="st0" points="256.4,-378.9 241.4,-378.9 241.4,-484.9 444.4,-484.9 444.4,-469.9 256.4,-469.9 	"/>
</g>
<g>
	<linearGradient id="SVGID_2_" gradientUnits="userSpaceOnUse" x1="-99.3137" y1="-312.009" x2="308.5533" y2="55.5456">
		<stop  offset="0" style="stop-color:#ADEBA2"/>
		<stop  offset="1" style="stop-color:#3F7336"/>
	</linearGradient>
	<polygon class="st1" points="56.6,-61.3 41.6,-61.3 41.6,-128.6 241.4,-128.6 241.4,-113.6 56.6,-113.6 	"/>
</g>
<g>
	<linearGradient id="SVGID_3_" gradientUnits="userSpaceOnUse" x1="32.0458" y1="-506.4232" x2="474.3315" y2="-107.8517">
		<stop  offset="0" style="stop-color:#ADEBA2"/>
		<stop  offset="1" style="stop-color:#3F7336"/>
	</linearGradient>
	<polygon class="st2" points="167,-371.3 96.7,-441.6 107.3,-452.2 177.6,-381.9 	"/>
</g>
<g>
	<linearGradient id="SVGID_4_" gradientUnits="userSpaceOnUse" x1="63.476" y1="-436.4962" x2="433.6844" y2="-102.8782">
		<stop  offset="0" style="stop-color:#ADEBA2"/>
		<stop  offset="1" style="stop-color:#3F7336"/>
	</linearGradient>
	<polygon class="st3" points="405.3,-52.5 362.2,-94.9 362.2,-229.7 377.2,-229.7 377.2,-101.1 415.9,-63.1 	"/>
</g>
<g>
	<g>
		<linearGradient id="SVGID_5_" gradientUnits="userSpaceOnUse" x1="109.0007" y1="-398.8656" x2="360.4537" y2="-160.9086">
			<stop  offset="0" style="stop-color:#ADEBA2"/>
			<stop  offset="1" style="stop-color:#3F7336"/>
		</linearGradient>
		<path class="st4" d="M138.8-156.3c5.5,0,10.8,0.2,16.1,0c15.1-0.6,26.6-13.3,25.8-28.3c-0.8-14.2-12.1-25.1-26.5-25.4
			c-5.2-0.1-10.3,0-16,0c0-3.3,0-6.4,0-9.4c0-3,0-6,0-9.5c5,0,9.8,0.2,14.6-0.1c3.7-0.3,7.7-0.7,11.1-2c11.6-4.4,18-15.7,16.6-28.8
			c-1.1-10.5-10.7-20.6-21.8-22.5c-2.5-0.4-5.2-0.3-7.7-0.3c-4.1-0.1-8.3,0-12.6,0c0-6.4,0-12.5,0-19.1c5.8,0,11.5,0.2,17.1,0
			c14.5-0.6,25.6-13.2,25.2-27.6c-0.5-14.4-12.7-25.9-25.7-25.9c-5.3,0-10.5,0-16.4,0c0.6-2.9,0.9-5.4,1.6-7.8
			c6.3-22.2,19.8-37.5,42.7-43.2c4-1,8.4-1.3,12.6-1.3c42.9-0.1,85.8,0.2,128.7-0.2c26.2-0.2,47.1,17.3,54.7,40.2
			c2.4,7.1,3.3,14.4,3.3,21.9c0,60.1,0,120.2,0,180.3c0,18.1-6,33.8-19.2,46.4c-10.3,9.9-22.8,15.1-37.2,15.1
			c-45-0.1-90,0-135.1-0.3c-12.5-0.1-23.1-5.5-32.3-13.8c-10.4-9.4-16.5-21.2-19.2-34.9C138.9-153.9,138.9-155,138.8-156.3z
			 M205.7-206.6c36.8,0,72.5,0,108.4,0c-0.2-1.8-0.4-3.3-0.5-4.8c-1.8-18.1-14.7-33.8-32.1-38.9c-11.4-3.3-23.1-2.7-34.5-1.5
			c-18.7,1.9-31.6,12.7-38.1,30.4C207.2-216.8,206.8-211.7,205.7-206.6z M284.8-280.5c0.3-13.1-10.6-24.4-24-24.9
			c-13.6-0.5-25.1,10.7-25.4,24.5c-0.2,13.3,10.8,24.5,24.5,24.9C273.1-255.7,284.5-266.9,284.8-280.5z"/>
		<linearGradient id="SVGID_6_" gradientUnits="userSpaceOnUse" x1="51.3855" y1="-337.9826" x2="302.8385" y2="-100.0257">
			<stop  offset="0" style="stop-color:#ADEBA2"/>
			<stop  offset="1" style="stop-color:#3F7336"/>
		</linearGradient>
		<path class="st5" d="M137.9-240.3c-5.3,0-10.6,0.1-15.8,0c-8.6-0.1-15.4-6.8-15.5-15.2c-0.1-9,6.3-15.9,15.2-16
			c11.1-0.1,22.1-0.1,33.2,0.1c8.2,0.1,14.3,7,14.4,15.5c0.1,8.1-6.2,15.1-14.1,15.6c-0.3,0-0.6,0-0.9,0
			C148.9-240.3,143.4-240.3,137.9-240.3z"/>
		<linearGradient id="SVGID_7_" gradientUnits="userSpaceOnUse" x1="15.0735" y1="-299.6111" x2="266.5265" y2="-61.6542">
			<stop  offset="0" style="stop-color:#ADEBA2"/>
			<stop  offset="1" style="stop-color:#3F7336"/>
		</linearGradient>
		<path class="st6" d="M137.9-167.6c-5.3,0-10.6,0.1-15.8,0c-8.6-0.1-15.4-6.8-15.5-15.2c-0.1-9,6.3-15.9,15.3-16
			c11-0.1,21.9-0.2,32.9,0.1c8.6,0.2,14.8,7.1,14.7,15.9c-0.1,8.4-6.6,15.1-15.1,15.3C148.9-167.5,143.4-167.6,137.9-167.6z"/>
		<linearGradient id="SVGID_8_" gradientUnits="userSpaceOnUse" x1="87.6938" y1="-376.3503" x2="339.1468" y2="-138.3933">
			<stop  offset="0" style="stop-color:#ADEBA2"/>
			<stop  offset="1" style="stop-color:#3F7336"/>
		</linearGradient>
		<path class="st7" d="M138.2-313c-5.4,0-10.8,0.1-16.1,0c-8.6-0.1-15.4-6.9-15.5-15.3c-0.1-8.8,6.4-15.8,15-15.9
			c11.1-0.2,22.1-0.2,33.2,0c8.5,0.2,14.8,7.2,14.7,15.9c-0.1,8.3-6.7,15.1-15.1,15.2C148.9-312.9,143.6-313,138.2-313z"/>
		<linearGradient id="SVGID_9_" gradientUnits="userSpaceOnUse" x1="206.8598" y1="-502.2749" x2="458.3128" y2="-264.318">
			<stop  offset="0" style="stop-color:#ADEBA2"/>
			<stop  offset="1" style="stop-color:#3F7336"/>
		</linearGradient>
		<path class="st8" d="M393.4-290.1c0-20.5,0-40.2,0-60.5c3.5,1.4,6.8,2.7,10.1,4c2.8,1.1,5.5,2.3,8.2,3.5c3.8,1.6,5.8,4.3,5.7,8.6
			c-0.1,9.5-0.1,19,0,28.5c0,3.2-1.1,5.9-4,7.2C406.9-295.8,400.3-293.1,393.4-290.1z"/>
		<linearGradient id="SVGID_10_" gradientUnits="userSpaceOnUse" x1="183.1136" y1="-477.182" x2="434.5667" y2="-239.225">
			<stop  offset="0" style="stop-color:#ADEBA2"/>
			<stop  offset="1" style="stop-color:#3F7336"/>
		</linearGradient>
		<path class="st9" d="M393.3-245.1c0-10.8,0-21,0-31.2c0-0.7,0.5-1.6,1.1-1.9c7.5-3.5,15.1-6.9,22.9-10.5c0,9.5,0.1,18.6-0.1,27.7
			c-0.1,3-1.6,5.6-4.5,6.9C406.5-251.1,400.2-248.3,393.3-245.1z"/>
		<linearGradient id="SVGID_11_" gradientUnits="userSpaceOnUse" x1="138.1926" y1="-429.7132" x2="389.6456" y2="-191.7562">
			<stop  offset="0" style="stop-color:#ADEBA2"/>
			<stop  offset="1" style="stop-color:#3F7336"/>
		</linearGradient>
		<path class="st10" d="M393.3-155.1c0-5.5,0-10.5,0-15.6c0-4.7,0.1-9.3-0.1-14c-0.1-2.3,0.6-3.5,2.7-4.5c7.1-3,14-6.3,21.4-9.6
			c0,9.6,0.3,18.9-0.2,28.1c-0.1,2.1-2.1,5-4,6.1C406.9-161.1,400.2-158.3,393.3-155.1z"/>
		<linearGradient id="SVGID_12_" gradientUnits="userSpaceOnUse" x1="160.6655" y1="-453.4606" x2="412.1184" y2="-215.5037">
			<stop  offset="0" style="stop-color:#ADEBA2"/>
			<stop  offset="1" style="stop-color:#3F7336"/>
		</linearGradient>
		<path class="st11" d="M417.4-243.8c0,9.6,0.2,18.7-0.2,27.7c-0.1,2.2-1.8,5.3-3.7,6.3c-6.3,3.5-13.1,6.3-20.2,9.6
			c0-4.4,0-8,0-11.7c0-6.2-0.1-12.4,0.1-18.6c0-1.1,0.8-2.7,1.6-3.1C402.2-237,409.5-240.2,417.4-243.8z"/>
	</g>
</g>
<linearGradient id="SVGID_13_" gradientUnits="userSpaceOnUse" x1="51.6607" y1="-497.6828" x2="111.1964" y2="-444.0315">
	<stop  offset="0" style="stop-color:#ADEBA2"/>
	<stop  offset="1" style="stop-color:#3F7336"/>
</linearGradient>
<circle class="st12" cx="81.4" cy="-470.9" r="32.6"/>
<linearGradient id="SVGID_14_" gradientUnits="userSpaceOnUse" x1="444.9591" y1="-496.6923" x2="489.5952" y2="-456.468">
	<stop  offset="0" style="stop-color:#ADEBA2"/>
	<stop  offset="1" style="stop-color:#3F7336"/>
</linearGradient>
<circle class="st13" cx="467.3" cy="-476.6" r="24.4"/>
<linearGradient id="SVGID_15_" gradientUnits="userSpaceOnUse" x1="26.5391" y1="-58.819" x2="71.1752" y2="-18.5947">
	<stop  offset="0" style="stop-color:#ADEBA2"/>
	<stop  offset="1" style="stop-color:#3F7336"/>
</linearGradient>
<circle class="st14" cx="48.9" cy="-38.7" r="24.4"/>
<linearGradient id="SVGID_16_" gradientUnits="userSpaceOnUse" x1="401.432" y1="-58.819" x2="446.0681" y2="-18.5947">
	<stop  offset="0" style="stop-color:#ADEBA2"/>
	<stop  offset="1" style="stop-color:#3F7336"/>
</linearGradient>
<circle class="st15" cx="423.8" cy="-38.7" r="24.4"/>
</svg>
