<?xml version="1.0" encoding="utf-8"?>
<!-- Generator: Adobe Illustrator 24.1.1, SVG Export Plug-In . SVG Version: 6.00 Build 0)  -->
<svg version="1.1" id="Capa_1" xmlns="http://www.w3.org/2000/svg" xmlns:xlink="http://www.w3.org/1999/xlink" x="0px" y="0px"
	 viewBox="6 -512 512 512" style="enable-background:new 6 -512 512 512;" xml:space="preserve">
<style type="text/css">
	.st0{fill:url(#SVGID_1_);}
	.st1{fill:url(#SVGID_2_);}
	.st2{fill:url(#SVGID_3_);}
	.st3{fill:url(#SVGID_4_);}
	.st4{fill:url(#SVGID_5_);}
	.st5{fill:url(#SVGID_6_);}
	.st6{fill:url(#SVGID_7_);}
	.st7{fill:url(#SVGID_8_);}
	.st8{fill:url(#SVGID_9_);}
	.st9{fill:url(#SVGID_10_);}
	.st10{fill:url(#SVGID_11_);}
	.st11{fill:url(#SVGID_12_);}
</style>
<g>
	<g>
		<linearGradient id="SVGID_1_" gradientUnits="userSpaceOnUse" x1="22.4236" y1="-525.9532" x2="396.1379" y2="-147.6675">
			<stop  offset="0" style="stop-color:#ADEBA2"/>
			<stop  offset="1" style="stop-color:#3F7336"/>
		</linearGradient>
		<path class="st0" d="M292.9-260.2c0,0-8.1,4.2-2.4,14.5c0,0,11.7-4.6,3.8-14c0,0-2.1,5.1-1.8,7.6
			C292.4-252.1,291.3-257.7,292.9-260.2"/>
		<linearGradient id="SVGID_2_" gradientUnits="userSpaceOnUse" x1="30.1277" y1="-533.5642" x2="403.842" y2="-155.2785">
			<stop  offset="0" style="stop-color:#ADEBA2"/>
			<stop  offset="1" style="stop-color:#3F7336"/>
		</linearGradient>
		<path class="st1" d="M290.7-263.3c0,0-9.8-3.7-4.8-16.1c0,0,14,3.6,6.3,15.4c0,0-3.1-5.5-3.2-8.4
			C289-272.5,288.6-265.9,290.7-263.3"/>
		<linearGradient id="SVGID_3_" gradientUnits="userSpaceOnUse" x1="32.5113" y1="-535.919" x2="406.2256" y2="-157.6333">
			<stop  offset="0" style="stop-color:#ADEBA2"/>
			<stop  offset="1" style="stop-color:#3F7336"/>
		</linearGradient>
		<path class="st2" d="M296.6-262.5c0,0,11.8-8.8,22.7,6.7c0,0-14.9,13.8-23-4.3c0,0,8.9,0.6,12.4,2.7
			C308.8-257.4,301.2-263,296.6-262.5"/>
		<linearGradient id="SVGID_4_" gradientUnits="userSpaceOnUse" x1="37.9457" y1="-541.2877" x2="411.6599" y2="-163.002">
			<stop  offset="0" style="stop-color:#ADEBA2"/>
			<stop  offset="1" style="stop-color:#3F7336"/>
		</linearGradient>
		<path class="st3" d="M296.5-270.1c0,0,3.3-9.1,14.9-4.6c0,0-3.2,13-14.2,6c0,0,5.1-2.9,7.8-3.1C305-271.7,298.8-272,296.5-270.1"
			/>
		<linearGradient id="SVGID_5_" gradientUnits="userSpaceOnUse" x1="8.7035" y1="-512.3989" x2="382.4178" y2="-134.1132">
			<stop  offset="0" style="stop-color:#ADEBA2"/>
			<stop  offset="1" style="stop-color:#3F7336"/>
		</linearGradient>
		<path class="st4" d="M321.7-302.5L272.4-331c-3.2-1.9-6.8-2.8-10.4-2.8c-3.6,0-7.2,0.9-10.4,2.8l-49.3,28.5
			c-6.4,3.7-10.4,10.6-10.4,18v57c0,5.7,2.3,11,6.2,14.8c1-2.2,2.2-4.5,3.5-6.7c-1.7-2.3-2.7-5.2-2.7-8.2v-57
			c0-4.9,2.6-9.5,6.9-11.9l14.9-8.6v28.9v4c0.6,0.8,1.3,1.5,1.9,2.1c14.4-5.3,20.6-5.7,32.8,2.8v0c6.8,2.8,30.3,5.7,30.3,5.7
			c0.7-2.4-5.2-3.6-11.9-4.7l27.9-39.7l16.5,9.5c4.2,2.4,6.9,7,6.9,11.9v31c2.5,1,4.9,2.1,7,3.2v-34.2
			C332.1-291.9,328.1-298.8,321.7-302.5 M249.9-273.7c-0.9-0.4-1.8-0.8-2.6-1.2v-45.4l7.9-4.5c2.1-1.2,4.5-1.8,6.9-1.8
			s4.8,0.6,6.9,1.8l11.2,6.5L249.9-273.7z M279-301.9L279-301.9c-1,0.6-1.7,1.6-1.7,2.7c0-1.6-1.3-2.9-3-3.3c-0.3-0.1-0.7-0.1-1-0.1
			c2.2,0,4.1-1.5,4.1-3.4c0,1.9,1.8,3.4,4.1,3.4C280.5-302.6,279.6-302.4,279-301.9 M289.4-298.6L289.4-298.6
			c-1,0.6-1.7,1.6-1.7,2.7c0-1.6-1.3-2.9-3-3.3c-0.3-0.1-0.7-0.1-1-0.1c2.2,0,4.1-1.5,4.1-3.4c0,1.9,1.8,3.4,4.1,3.4
			C290.9-299.2,290.1-299,289.4-298.6 M288.1-308.2L288.1-308.2c-1.6,1-2.6,2.5-2.6,4.3c0-2.4-2-4.5-4.8-5.1c-0.5-0.1-1-0.2-1.6-0.2
			c3.5,0,6.3-2.4,6.3-5.3c0,2.9,2.9,5.3,6.3,5.3C290.4-309.2,289.2-308.8,288.1-308.2"/>
		<linearGradient id="SVGID_6_" gradientUnits="userSpaceOnUse" x1="8.7011" y1="-512.3966" x2="382.4154" y2="-134.1109">
			<stop  offset="0" style="stop-color:#ADEBA2"/>
			<stop  offset="1" style="stop-color:#3F7336"/>
		</linearGradient>
		<path class="st5" d="M262-338.2c3.5,0,7,0.9,10.1,2.7l53.7,31c6.2,3.6,10.1,10.3,10.1,17.5v62c0,7.2-3.9,13.9-10.1,17.5l-53.7,31
			c-3.1,1.8-6.6,2.7-10.1,2.7s-7-0.9-10.1-2.7l-53.7-31c-6.2-3.6-10.1-10.3-10.1-17.5v-62c0-7.2,3.9-13.9,10.1-17.5l53.7-31
			C255-337.3,258.5-338.2,262-338.2 M262-340.6c-3.9,0-7.8,1-11.3,3l-53.7,31c-7,4-11.3,11.5-11.3,19.6v62c0,8.1,4.3,15.5,11.3,19.6
			l53.7,31c3.5,2,7.4,3,11.3,3c3.9,0,7.8-1,11.3-3l53.7-31c7-4,11.3-11.5,11.3-19.6v-62c0-8.1-4.3-15.5-11.3-19.6l-53.7-31
			C269.8-339.6,265.9-340.6,262-340.6"/>
		<linearGradient id="SVGID_7_" gradientUnits="userSpaceOnUse" x1="-2.7353" y1="-501.0983" x2="370.9789" y2="-122.8126">
			<stop  offset="0" style="stop-color:#ADEBA2"/>
			<stop  offset="1" style="stop-color:#3F7336"/>
		</linearGradient>
		<path class="st6" d="M325.1-250.1v22.6c0,4.9-2.6,9.5-6.9,11.9l-9.3,5.4l-35-49.1c1.9,0,3.6,0,5.1,0c1.2,0,2.3,0,3.1,0
			c0.1,0,0.2,0,0.3,0c0.1,0,0.2,0,0.3,0c0.1,0,0.3,0,0.4,0l0.2,0c0.2,0,0.3,0,0.5-0.1l0.1,0c0.2,0,0.3-0.1,0.4-0.1l0.1,0
			c0.2-0.1,0.3-0.1,0.5-0.2c0,0,0.1-0.1,0.1-0.1c0.2-0.2,0.4-0.4,0.5-0.6c0.1-0.3,0.2-0.5,0.2-0.8l-9.6-0.7
			c-1.6,0-18.7-0.1-29.6,4.6l0-0.1l-2.7,1.3c-5.2,2.6-9.8,6.1-13.7,10.2c-3.3,3.6-6.4,6.9-9.4,10c-0.1,0.7-0.1,1.3-0.1,2
			c0,0.6-0.1,1.3-0.2,2c0.1-0.1,0.1-0.1,0.2-0.2v25.1l-14.9-8.6c-0.8-0.5-1.6-1-2.3-1.6c-1.5,1.8-2.9,3.7-4.3,5.6
			c0.9,0.8,1.9,1.5,3,2.1l49.3,28.5c3.2,1.9,6.8,2.8,10.4,2.8c3.6,0,7.2-0.9,10.4-2.8l49.3-28.5c6.4-3.7,10.4-10.6,10.4-18v-19.6
			C329.8-248.2,327.5-249.2,325.1-250.1 M268.9-187.1c-2.1,1.2-4.5,1.8-6.9,1.8c-2.4,0-4.8-0.6-6.9-1.8l-7.9-4.5v-63.2
			c0.3-0.1,0.6-0.2,0.8-0.4l36.8,58.9L268.9-187.1z"/>
	</g>
</g>
<g>
	<linearGradient id="SVGID_8_" gradientUnits="userSpaceOnUse" x1="-11.7182" y1="-519.0763" x2="368.8533" y2="-153.362">
		<stop  offset="0" style="stop-color:#ADEBA2"/>
		<stop  offset="1" style="stop-color:#3F7336"/>
	</linearGradient>
	<path class="st7" d="M335.6-338.3c-45.4-40.6-115.2-36.8-155.9,8.7c-18.1,20.2-28.1,46.4-28.1,73.6c0,31.4,13.4,61.3,36.8,82.3
		c45.4,40.6,115.2,36.8,155.9-8.7C384.9-227.9,381-297.7,335.6-338.3z M324.3-186.4c-38.4,34.4-97.5,31.1-131.9-7.4
		c-15.3-17.1-23.8-39.3-23.8-62.3c0-26.6,11.3-51.9,31.1-69.6c38.4-34.4,97.5-31.1,131.9,7.4C366-279.9,362.7-220.8,324.3-186.4z"/>
	<linearGradient id="SVGID_9_" gradientUnits="userSpaceOnUse" x1="-1.1142" y1="-530.1111" x2="379.4573" y2="-164.3968">
		<stop  offset="0" style="stop-color:#ADEBA2"/>
		<stop  offset="1" style="stop-color:#3F7336"/>
	</linearGradient>
	<path class="st8" d="M499.7-232.1L499.7-232.1c13.2-4.7,20.2-19.2,15.6-32.4c-4.7-13.2-19.2-20.2-32.4-15.6
		c-7.3,2.6-13,8.3-15.6,15.6h-61.4c-3-50.1-31.7-95.1-76-118.8v-51h95c2.6,7.2,8.2,12.9,15.4,15.4v69.5c0,4.7,3.8,8.5,8.5,8.5h67.9
		v-17h-59.4v-61c13.2-4.7,20.2-19.2,15.6-32.4c-4.7-13.2-19.2-20.2-32.4-15.6c-7.3,2.6-13,8.3-15.6,15.6H321.4
		c-4.7,0-8.5,3.8-8.5,8.5v51.9c-16.3-6.2-33.5-9.4-50.9-9.5c-5.7,0-11.3,0.4-17,1.1v-11.1c13.2-4.6,20.2-19,15.6-32.2
		c-2.5-7.3-8.3-13-15.6-15.6v-35.5h271.7v-17H236.5c-4.7,0-8.5,3.8-8.5,8.5v44c-7.2,2.6-12.9,8.2-15.4,15.4h-78v-18.5
		c13.2-4.7,20.2-19.2,15.6-32.4c-4.7-13.2-19.2-20.2-32.4-15.6c-7.3,2.6-13,8.3-15.6,15.6h-95v17h95c2.6,7.2,8.2,12.9,15.4,15.4v27
		c0,4.7,3.8,8.5,8.5,8.5h86.5c2.6,7.2,8.2,12.9,15.4,15.4v14.3c-61.5,15-106.1,68.4-109.9,131.6H66.7v-35.5
		c13.2-4.6,20.2-19,15.6-32.2c-2.5-7.3-8.3-13-15.6-15.6v-52.5c0-4.7-3.8-8.5-8.5-8.5H7.3v17h42.5v44c-13.2,4.6-20.2,19-15.6,32.2
		c2.5,7.3,8.3,13,15.6,15.6v44c0,4.7,3.8,8.5,8.5,8.5h59.9c1.2,20.8,6.8,41.1,16.6,59.4H92.2c-4.7,0-8.5,3.8-8.5,8.5v42.5H7.3v17
		h76.4v17c0,4.7,3.8,8.5,8.5,8.5h59.4v18.5c-7.2,2.6-12.9,8.2-15.4,15.4H7.3v17h128.9c4.7,13.2,19.2,20.2,32.4,15.6
		c13.2-4.7,20.2-19.2,15.6-32.4c-2.6-7.3-8.3-13-15.6-15.6v-27c0-4.7-3.8-8.5-8.5-8.5h-59.4v-59.4h44.9c25.4,34.8,65,56.5,108,59
		v59.9c0,4.7,3.8,8.5,8.5,8.5h67.9v42.5h17v-50.9c0-4.7-3.8-8.5-8.5-8.5h-67.9v-51.4c35.3-2,68.7-17,93.6-42h50.7v103.4
		c-13.3,4.7-20.2,19.2-15.5,32.5C404-5,418.5,2,431.8-2.7c13.3-4.7,20.2-19.2,15.5-32.5c-2.6-7.3-8.3-13-15.5-15.5v-111.9
		c0-4.7-3.8-8.5-8.5-8.5h-44.9c16.3-22.3,25.9-48.8,27.4-76.4h61.4c2.6,7.2,8.2,12.9,15.4,15.4v111.9c0,4.7,3.8,8.5,8.5,8.5h25.5
		v-17h-17V-232.1z M448.8-451.3c4.7,0,8.5,3.8,8.5,8.5c0,4.7-3.8,8.5-8.5,8.5s-8.5-3.8-8.5-8.5C440.3-447.5,444.1-451.3,448.8-451.3
		z M126.1-476.8c-4.7,0-8.5-3.8-8.5-8.5c0-4.7,3.8-8.5,8.5-8.5c4.7,0,8.5,3.8,8.5,8.5C134.6-480.6,130.8-476.8,126.1-476.8z
		 M58.2-315.5c-4.7,0-8.5-3.8-8.5-8.5s3.8-8.5,8.5-8.5s8.5,3.8,8.5,8.5S62.9-315.5,58.2-315.5z M160.1-60.8c4.7,0,8.5,3.8,8.5,8.5
		c0,4.7-3.8,8.5-8.5,8.5s-8.5-3.8-8.5-8.5C151.6-57,155.4-60.8,160.1-60.8z M423.3-35.3c4.7,0,8.5,3.8,8.5,8.5s-3.8,8.5-8.5,8.5
		s-8.5-3.8-8.5-8.5S418.6-35.3,423.3-35.3z M236.5-442.8c4.7,0,8.5,3.8,8.5,8.5c0,4.7-3.8,8.5-8.5,8.5s-8.5-3.8-8.5-8.5
		C228-439,231.8-442.8,236.5-442.8z M262-128.7c-70.3,0-127.4-57-127.4-127.4c0.1-70.3,57.1-127.3,127.4-127.4
		c70.3,0,127.4,57,127.4,127.4S332.3-128.7,262-128.7z M491.2-247.6c-4.7,0-8.5-3.8-8.5-8.5s3.8-8.5,8.5-8.5s8.5,3.8,8.5,8.5
		S495.9-247.6,491.2-247.6z"/>
	<linearGradient id="SVGID_10_" gradientUnits="userSpaceOnUse" x1="-168.4363" y1="-355.9915" x2="212.1351" y2="9.7228">
		<stop  offset="0" style="stop-color:#ADEBA2"/>
		<stop  offset="1" style="stop-color:#3F7336"/>
	</linearGradient>
	<rect x="7.3" y="-171.1" class="st9" width="50.9" height="17"/>
	<linearGradient id="SVGID_11_" gradientUnits="userSpaceOnUse" x1="-80.25" y1="-447.7604" x2="300.3215" y2="-82.0461">
		<stop  offset="0" style="stop-color:#ADEBA2"/>
		<stop  offset="1" style="stop-color:#3F7336"/>
	</linearGradient>
	<rect x="287.5" y="-94.7" class="st10" width="17" height="17"/>
	<linearGradient id="SVGID_12_" gradientUnits="userSpaceOnUse" x1="127.4012" y1="-663.8474" x2="507.9726" y2="-298.1331">
		<stop  offset="0" style="stop-color:#ADEBA2"/>
		<stop  offset="1" style="stop-color:#3F7336"/>
	</linearGradient>
	<rect x="406.3" y="-400.4" class="st11" width="17" height="25.5"/>
</g>
</svg>
